<svg xmlns="http://www.w3.org/2000/svg" viewBox="0 0 768 768" fill="none" shape-rendering="auto"><metadata xmlns:rdf="http://www.w3.org/1999/02/22-rdf-syntax-ns#" xmlns:xsi="http://www.w3.org/2001/XMLSchema-instance" xmlns:dc="http://purl.org/dc/elements/1.1/" xmlns:dcterms="http://purl.org/dc/terms/"><rdf:RDF><rdf:Description><dc:title>ToonHead</dc:title><dc:creator>Johan Melin</dc:creator><dc:source xsi:type="dcterms:URI">https://www.figma.com/community/file/1589627891082866389</dc:source><dcterms:license xsi:type="dcterms:URI">https://creativecommons.org/licenses/by/4.0/</dcterms:license><dc:rights>Remix of „ToonHead” (https://www.figma.com/community/file/1589627891082866389) by „Johan Melin”, licensed under „CC BY 4.0” (https://creativecommons.org/licenses/by/4.0/)</dc:rights></rdf:Description></rdf:RDF></metadata><mask id="viewboxMask"><rect width="768" height="768" rx="0" ry="0" x="0" y="0" fill="#fff" /></mask><g mask="url(#viewboxMask)"><g transform="translate(0 10)"></g><path d="M432.5 556.5v69.45l.4.07c120.31 22.8 211.36 128.92 211.6 256.48h-520c.24-127.56 91.29-233.7 211.6-256.48l.4-.07V556.5z" fill="#f1c3a5" stroke="black"/><path d="M336 556h97v37s-30.58 9.4-49 9.5c-19.59.1-48-9.5-48-9.5z" fill="black" fill-opacity="0.2"/><path d="M191.5 452.5c-20-77.5 33.5-50 33.5-50C189.18 286.68 217 140 384 140s194.82 146.68 159 262.5c0 0 53.5-27.5 33.5 50-11.1 43-51 43-51 43C519.57 545.9 434 591 384 591s-135.57-45.1-141.5-95.5c0 0-39.9 0-51-43Z" fill="#f1c3a5" stroke="black"/><path d="M202.22 410c19.81-10.14 38.7 54.5 30 69-16.5 8.5-55-56.21-30-69m363.96 0c-19.82-10.14-38.7 54.5-30 69 16.5 8.5 55-56.21 30-69M384 469.5c-7.81 0-18-7.5-16-9.5 2-3 8.19 3 16 3s14-6 16-3c1.81 2.17-8.19 9.5-16 9.5" fill="black" fill-opacity="0.2"/><path d="M455 878.5V648s-40.54 28.56-71 27-68.5-27-68.5-27v230.5z" fill="#147f3c"/><path d="M455 878.5V648s-40.54 28.56-71 27-68.5-27-68.5-27v230.5z" fill="black" fill-opacity="0.2" stroke="black"/><g fill="#147f3c"><path d="M610.5 679C591.42 661 433 624.5 433 624.5s14.17 26.29 15 50.5c2.69 78.5-5 205-5 205h217s-19.5-172.7-49.5-201M108 880h227.5s-8.95-126.5-8.5-205c.13-23.24 9.5-50.5 9.5-50.5s-102.1 16.64-129.5 33C171 679 108 880 108 880"/><path d="M610.5 679C591.42 661 433 624.5 433 624.5s14.17 26.29 15 50.5c2.69 78.5-5 205-5 205h217s-19.5-172.7-49.5-201ZM108 880h227.5s-8.95-126.5-8.5-205c.13-23.24 9.5-50.5 9.5-50.5s-102.1 16.64-129.5 33C171 679 108 880 108 880Z" stroke="black"/></g><path d="M363 533c6.08 6.96 16.76 6.57 25 4.36 3.88-1.04 7.8-1.87 10-5.36l-18 1.99z" fill="black" fill-opacity="0.2"/><path d="M326 504c5.6 6.77 14.7 8.63 23 10.2 6.89 1.3 14.02.8 21 .8 16.38 0 33.36-1.3 49-6.7 8.06-2.78 19.39-6.74 24-14.3-4.88 1.4-9.12 4.31-14 5.7-14.38 4.1-29.32 4.07-44 5.47-12.54 1.2-25.36 4.61-38 3.74-7.36-.5-13.98-3-21-4.91" fill="#3F2626" fill-opacity="0.5"/><path d="M321.5 373.47c29 10 22.5 53 22.5 53s-8 21-52.5 11c-27.15-6.1-26.5-41-26.5-41s27.5-33 56.5-23" fill="#F6F1E4"/><circle cx="314" cy="413.473" r="27" fill="#4B2422"/><path d="M266.5 380.97h7s22.06-25.12 53-8c23.5 13 18 43 18 43s1.25-43-37-43-37.5 46-37.5 46-3.18-5.55-4.25-9.75L263 398.47l-10-7.5h18.5z" fill="#4B2422"/><path d="M445.56 373.47c-29 10-22.5 53-22.5 53s8 21 52.5 11c27.15-6.1 26.5-41 26.5-41s-27.5-33-56.5-23" fill="#F6F1E4"/><circle cx="27" cy="27" r="27" transform="matrix(-1 0 0 1 480.06 386.47)" fill="#4B2422"/><path d="M500.56 380.97h-7s-22.06-25.12-53-8c-23.5 13-18 43-18 43s-1.25-43 37-43 37.5 46 37.5 46 3.18-5.55 4.25-9.75l2.75-10.75 10-7.5h-18.5z" fill="#4B2422"/><g fill="#724133"><path d="M302.87 328.48c14.96-3.04 24.47-23.2 36.31-14.78s-18.13 31.2-35.4 33.54c-14.8 2.02-39.28-5.72-37.33-8.45 1.94-2.74 21.93-7.37 36.42-10.3m163.35 0c-14.97-3.05-24.48-23.2-36.32-14.79s18.14 31.2 35.4 33.54c14.81 2.02 39.28-5.72 37.34-8.45-1.94-2.74-21.94-7.37-36.43-10.3"/><path d="M302.87 328.48c14.96-3.04 24.47-23.2 36.31-14.78s-18.13 31.2-35.4 33.54c-14.8 2.02-39.28-5.72-37.33-8.45 1.94-2.74 21.93-7.37 36.42-10.3Zm163.35 0c-14.97-3.04-24.48-23.2-36.32-14.78s18.14 31.2 35.4 33.54c14.81 2.02 39.28-5.72 37.34-8.45-1.94-2.74-21.94-7.37-36.43-10.3Z" stroke="black"/></g><path d="m543.5 402.5 13-5.5s28.48-120.79 13-178c-8.35-30.85-74-47.5-74-47.5s0-81.41-152-47c-105.94 23.98-164.98 107.13-146.5 205 5.57 29.49 13.47 40.2 19 69.5l8.5 3L249 297s70.6-1.43 112-15 100-54.5 100-54.5 39.82 28.78 56.5 54.5c26.2 40.39 26 120.5 26 120.5Z" fill="#724133" stroke="black"/></g></svg>